<svg width="1320" height="1336" viewBox="0 0 1320 1336" fill="none" xmlns="http://www.w3.org/2000/svg">
<g opacity="0.95">
<path d="M634.759 1093.84C484.051 1083.83 350.281 994.808 282.462 859.371C257.122 808.89 242.651 754.875 238.65 696.592C237.783 683.455 237.783 653.18 238.65 639.443C240.584 610.169 245.319 581.094 252.654 554.086C289.798 417.715 393.426 307.818 527.397 263.006C572.542 247.869 615.287 241 664.301 241C713.848 241 756.326 247.735 801.139 262.606C969.954 318.819 1081.46 490.876 1081.46 667.651C1081.46 970.121 696.777 1120.36 561.473 875.175C650.902 978.737 819.691 971.043 915.17 890.846C924.173 883.311 942.044 865.106 948.913 856.503C966.851 834.097 980.722 810.157 991.125 783.883C999.127 763.611 1006.73 730.268 1010 701.127C1011.6 686.523 1011.6 649.046 1010 634.442C1004.86 588.696 993.258 549.618 972.92 510.074C956.382 477.865 937.776 452.258 911.836 425.784C883.428 396.843 854.02 375.304 818.677 357.632C781 338.76 742.323 327.491 698.11 322.556C683.506 320.955 646.029 320.955 631.425 322.556C559.739 330.558 497.188 357.032 442.706 402.311C432.237 411.047 412.231 430.786 402.562 441.922C360.35 490.802 332.609 550.285 322.407 613.836C319.539 631.641 319.139 636.776 320.273 642.444C321.273 647.846 323.474 654.114 324.941 656.115C325.808 657.382 325.941 657.315 328.742 655.448C333.676 652.113 343.479 641.777 347.88 635.242C356.083 623.239 362.618 607.368 367.286 588.429C370.02 577.093 372.02 566.156 376.021 539.416C381.29 504.406 384.357 489.802 389.692 474.464C405.163 430.052 437.638 411.514 493.921 414.981C517.26 416.448 535.866 419.849 561.406 427.318C581.945 433.32 587.08 434.653 595.682 436.121C607.219 438.054 617.288 436.587 623.423 432.053C624.69 431.119 626.557 430.386 627.824 430.386C629.691 430.386 630.092 430.719 631.292 433.586C634.759 441.655 637.427 454.259 637.427 462.261C637.36 468.129 635.76 475.798 633.693 480.066C631.292 484.934 626.491 490.269 621.889 493.136C620.022 494.337 618.288 495.404 618.222 495.47C618.088 495.537 619.355 502.939 621.022 511.875C624.757 531.747 624.957 538.149 622.356 560.555C619.889 582.094 620.355 586.229 627.557 602.7C631.825 612.569 632.559 615.703 631.825 620.771C631.225 624.639 627.691 628.774 624.223 629.774C622.823 630.107 618.688 630.441 614.954 630.441H608.085V639.177C608.085 643.978 607.819 648.446 607.419 649.113C607.085 649.779 605.685 650.98 604.418 651.78C602.15 653.18 602.084 653.38 602.084 657.248C602.084 661.316 602.084 661.316 598.083 665.517L594.082 669.652V677.921C594.082 690.124 591.281 699.06 585.746 704.595C581.678 708.662 579.411 709.463 570.742 709.663C561.606 709.929 558.005 709.196 540.8 703.128C524.862 697.593 520.261 696.726 511.792 697.793C475.782 702.127 456.11 721.533 452.643 756.209C450.309 779.015 459.511 820.026 474.115 852.169C496.321 900.849 536.799 947.195 584.812 978.737C715.378 1064.58 915.17 1052.04 1040.52 872.508C934.442 1077.31 751.105 1101.38 634.759 1093.84Z" fill="#00C7F1"/>
<path d="M696.777 925.455C646.307 920.015 595.64 894.303 557.471 846.5C603.494 878.642 634.833 892.63 684.173 889.112C730.653 885.845 773.998 864.905 809.541 828.695C824.745 813.158 836.749 796.753 845.951 778.815C868.491 734.736 870.958 692.725 853.086 657.115C848.619 648.246 849.219 648.512 843.951 653.114C833.081 662.65 822.945 669.518 811.942 674.786C801.005 680.054 794.27 681.855 784.067 682.255C776.065 682.588 775.398 682.522 771.931 680.921C765.195 677.854 761.861 673.653 753.059 657.048C746.257 644.178 742.989 639.243 738.588 634.975C731.853 628.374 725.585 626.173 715.582 626.906L709.313 627.306L709.647 624.706C709.847 623.305 710.847 619.238 711.781 615.77C715.582 602.166 714.715 588.429 708.446 564.756C700.178 533.547 698.777 525.745 698.777 509.941C698.777 497.871 699.911 490.002 702.845 480.599L704.845 474.398H707.113C709.247 474.398 709.38 474.531 710.847 478.866C720.25 507.473 735.12 528.079 759.661 546.551C771.397 555.287 784.801 563.155 812.142 577.159C845.551 594.297 858.154 601.499 872.092 611.369C902.033 632.575 923.439 660.116 936.976 694.792C939.577 701.46 939.577 701.46 939.177 697.793C938.577 692.525 936.309 681.855 934.442 675.586C927.44 651.98 913.836 630.241 895.031 612.436C880.561 598.765 860.555 584.628 833.148 568.757C780.466 538.215 768.33 530.013 752.125 513.742C739.989 501.539 732.72 490.869 727.385 477.132C723.584 467.462 721.317 456.993 721.183 448.724L721.117 442.122L728.585 437.054C750.391 422.317 771.864 414.981 795.804 413.914C832.681 412.314 865.757 426.918 896.498 458.46C913.636 475.998 926.173 493.803 938.577 518.076C957.449 554.887 968.518 592.83 973.32 636.442C974.787 650.113 974.987 687.523 973.653 700.46C971.519 721.066 966.918 743.005 961.183 759.676C946.712 801.888 919.705 839.098 880.761 870.24C873.759 875.842 854.687 888.712 846.485 893.313C815.543 910.851 781.4 921.921 747.19 925.522C735.187 926.789 708.513 926.722 696.777 925.455Z" fill="#00C7F1"/>
<path d="M654.765 873.775C633.492 870.507 616.354 854.503 611.753 833.63C610.82 829.496 610.686 826.228 610.886 818.293C611.153 809.49 611.42 807.423 613.02 802.822C617.621 789.351 627.224 778.348 639.761 772.413C648.363 768.279 652.298 767.479 664.101 767.479C672.903 767.479 675.237 767.679 679.705 769.012C688.774 771.613 694.976 775.347 701.845 782.149C710.047 790.285 714.248 797.754 716.449 808.157C717.716 814.091 717.716 827.495 716.449 833.297C712.448 852.302 697.71 867.773 678.972 872.508C672.903 874.108 660.9 874.708 654.765 873.775Z" fill="#00C7F1"/>
</g>
</svg>
